<svg width="16" height="16" viewBox="0 0 32 32" fill="none" xmlns="http://www.w3.org/2000/svg">
  <!-- Background circle with rounded edges -->
  <rect x="0" y="0" width="32" height="32" rx="6" fill="#111827"/>
  
  <!-- Shopping cart body -->
  <path d="M8 10h16c0.6 0 1 .4 1 1s-.4 1-1 1H8c-.6 0-1-.4-1-1s.4-1 1-1zm0 4h16c.6 0 1 .4 1 1s-.4 1-1 1H8c-.6 0-1-.4-1-1s.4-1 1-1z" fill="white"/>
  
  <!-- Cart basket -->
  <path d="M6 8h2v10c0 1.1.9 2 2s2-.9 2-2V8h2l2-4h8l2 4h2v10c0 1.1.9 2 2s2-.9 2-2V8z" fill="white"/>
  
  <!-- Cart handle -->
  <path d="M6 6h20l-1-2H7l-1 2z" fill="white"/>
  
  <!-- Cart wheels -->
  <circle cx="10" cy="24" r="1" fill="white"/>
  <circle cx="22" cy="24" r="1" fill="white"/>
</svg>
